/* XPM */
static char *_befefd1f1974f0a83baa678424a2ebdM3jo4YeiPMMNiG4C[] = {
/* columns rows colors chars-per-pixel */
"20 20 19 1 ",
"  c None",
". c black",
"X c #060606",
"o c #6C501C",
"O c #7C7C00",
"+ c #7C6C10",
"@ c #B2941E",
"# c #AA8624",
"$ c #D8A038",
"% c #E8BC2C",
"& c #F8F800",
"* c #F8E810",
"= c #F8D820",
"- c #BEAF5C",
"; c gray51",
": c #BFB88E",
"> c #FBFB80",
", c #FCED9A",
"< c white",
/* pixels */
"       ......       ",
"     ..;<<<<;..     ",
"    X;;:,,,,-+o.    ",
"    X<<,======$.    ",
"    .<=*&<<&*=$.    ",
"  ..<=&><&=.O&=$..  ",
"  ..<=&><&=.O&=$..  ",
"  ..<=&><&=.O&=$..  ",
"  ..<=&><&=.O&=$..  ",
"  ..<=&><&=.O&=$..  ",
"  ..<=&><&=.O&=$..  ",
"  ..<=&><&=.O&=$..  ",
"  ..<=&><*=.O&=$..  ",
"  ..<=&><==.O&=$..  ",
"  ..<=&><==.O&=$..  ",
"    .=&&&..&*=$X    ",
"    .=======%$$X    ",
"    .++@%%%%#ooX    ",
"     ..o$$$$o..     ",
"       ......       "
};
