/* XPM */
static char *e38438d5b16b4633af7dc95846aa9c5baIE5RDWT0N1txeAQ[] = {
/* columns rows colors chars-per-pixel */
"20 20 80 1 ",
"  c #5B9E37",
". c #5B9E3C",
"X c #5DA134",
"o c #59A03D",
"O c #6BA936",
"+ c #67AC3D",
"@ c #6CAB3D",
"# c #6BB53C",
"$ c #6FBC3E",
"% c #74B137",
"& c #70B139",
"* c #7CB73E",
"= c #73B93D",
"- c #7EBB3F",
"; c #569F45",
": c #599F44",
"> c #569E4A",
", c #5A9E49",
"< c #57A043",
"1 c #5AA144",
"2 c #5FA842",
"3 c #57A148",
"4 c #65A745",
"5 c #64AC45",
"6 c #6BAB42",
"7 c #60A749",
"8 c #65AC49",
"9 c #68AD48",
"0 c #67B045",
"q c #6CB445",
"w c #6EBB44",
"e c #65B048",
"r c #6BB44A",
"t c #74B345",
"y c #7AB743",
"u c #72BA44",
"i c #7DBA41",
"p c #7CBF43",
"a c #7AB944",
"s c #79BA44",
"d c #7EB846",
"f c #70BA49",
"g c #72BB48",
"h c #72BA4D",
"j c #7BB84A",
"k c #7DBA49",
"l c #7EC041",
"z c #7EC342",
"x c #7DC34C",
"c c #81B53D",
"v c #80B63E",
"b c #84B73D",
"n c #82B83D",
"m c #8FC53B",
"M c #8DC73D",
"N c #8DC73E",
"B c #8EC73E",
"V c #90C43B",
"C c #91C53B",
"Z c #93C53B",
"A c #96C539",
"S c #91C53D",
"D c #91C73E",
"F c #82B741",
"G c #83B644",
"H c #82B744",
"J c #81B841",
"K c #81BB45",
"L c #80C243",
"P c #8FC440",
"I c #8CC640",
"U c #8DC640",
"Y c #8BC646",
"T c #8EC447",
"R c #8DC940",
"E c #8AC847",
"W c #8CC64C",
"Q c #91C347",
"! c #90C745",
"~ c #9BC942",
/* pixels */
"1u::D111uu;.uf111u1u",
"158-uuuD:DD::8c-uu=1",
"*a<-8@0<y4tyyjpu6uqi",
"1;85KJWuown;:;5:*:Io",
"1FN.w$f:+>q4Nc:Kw1w5",
":8R<uf1UdZ;18+::uuod",
"uo1w1CoJu1quu1uuYu.w",
"qiq01r+ltp5fLu58ru+t",
"uNCr5qq~5cw=LNq:rY#5",
"D&u;$3n#NDeDCq:roDnm",
"STN.C;;NcfoYQD1u.u.J",
"N:N8:FYufuUN1.51k<Nu",
"aaa45uy6651a&y55uJy6",
":=;<D:.:fu1 uf;;1u>w",
",55-uuuD.DZ::5--uuw:",
"mF:ur,u:F:b!*kuw1ffi",
":u:N1C1oun12uhm0Uu<w",
":O*7uyx8o5u:&O5@a1x4",
":5N,u=.NyC<15+1:uwX*",
"u;.u1Z:dw<quu,uuNy.f"
};
