/* XPM */
static char *_18155c3d58b4d81ba1e4d66091af540JHgIKaxLcKImlI5i[] = {
/* columns rows colors chars-per-pixel */
"20 20 22 1 ",
"  c None",
". c black",
"X c #020100",
"o c #0B0600",
"O c #0E0700",
"+ c #100800",
"@ c #2E1700",
"# c #281C14",
"$ c #4B2600",
"% c #603100",
"& c #6B3700",
"* c #7B3F00",
"= c #543F35",
"- c #894600",
"; c #994E00",
": c #A35B14",
"> c #B8743B",
", c #DDAD9F",
"< c #E7B8B1",
"1 c #F3BEB1",
"2 c #F5BFB1",
"3 c #FFCCC5",
/* pixels */
"        ; 2>        ",
"       ;;-+&;       ",
"       ;.-+.;       ",
"       &.%o.&       ",
"    +<o2+2,=2+1.    ",
"    -O%-------*.    ",
"    ;+&;;..;;;-.    ",
"    ;+&;;..;;;-.    ",
"    &O$&&..&&&%.    ",
"3 ; ;+;+;#2>+;+; ; :",
"O%-------*O%-------*",
"+&;;;;;..-+..;;;;;;-",
"+&;;;;;..-+..;;;;;;-",
"o$&&&&&..%o..&&&&&&%",
"++++O.o+++++++O.o+++",
"----*O%-------*+%---",
";;;;-.&;;@@;;;.+&;;;",
";;;;...;;..;;..+&;;;",
"&&&&...&&..&&..O$&&&",
".O++...++..O+...+++O"
};
