/* XPM */
static char *_3ef50c0675c436a8be20bad24644bd6b7Uno8rIdlpsDaVP[] = {
/* columns rows colors chars-per-pixel */
"20 20 133 2 ",
"   c None",
".  c #080000",
"X  c #100100",
"o  c #220000",
"O  c #3D0B00",
"+  c #300B25",
"@  c #4A1100",
"#  c #612C06",
"$  c #763A0B",
"%  c #7B281F",
"&  c #743D18",
"*  c #7E441C",
"=  c #674433",
"-  c #00255E",
";  c #002867",
":  c #002C77",
">  c #002D7A",
",  c #00317A",
"<  c #00317F",
"1  c #A30008",
"2  c #A80009",
"3  c #A8000A",
"4  c #AB020A",
"5  c #AD0009",
"6  c #B2000A",
"7  c #B6000A",
"8  c #B6000B",
"9  c #B2000C",
"0  c #B7010D",
"q  c #C6000D",
"w  c #CC000E",
"e  c #D3000F",
"r  c #CA0311",
"t  c #D60010",
"y  c #D60012",
"u  c #DA0010",
"i  c #E30012",
"p  c #E40014",
"a  c #EA0014",
"s  c #F30016",
"d  c #F80016",
"f  c #F90016",
"g  c #F90018",
"h  c #F80019",
"j  c #FD0018",
"k  c #FF001B",
"l  c #85451A",
"z  c #995326",
"x  c #9A572B",
"c  c #8F4B39",
"v  c #A55F28",
"b  c #A35D2F",
"n  c #BB6F3E",
"m  c #C07238",
"M  c #803E40",
"N  c #A76148",
"B  c #BC7948",
"V  c #BB7254",
"C  c #C37251",
"Z  c #C07557",
"A  c #FF5163",
"S  c #D98649",
"D  c #D38552",
"F  c #C18063",
"G  c #C58466",
"H  c #DE9B7D",
"J  c #FD9572",
"K  c #003181",
"L  c #00388A",
"P  c #003A96",
"I  c #12519C",
"U  c #0043AC",
"Y  c #0046AF",
"T  c #0046B0",
"R  c #0047B0",
"E  c #0049B0",
"W  c #004DB2",
"Q  c #004FB2",
"!  c #004FB6",
"~  c #004CB9",
"^  c #004CBA",
"/  c #004EBB",
"(  c #004CBC",
")  c #004DBD",
"_  c #0253B6",
"`  c #0055B9",
"'  c #2D77AD",
"]  c #0057C4",
"[  c #0055CA",
"{  c #005ED0",
"}  c #005ED3",
"|  c #005BD4",
" . c #005CD6",
".. c #1365C8",
"X. c #0062D1",
"o. c #0362D9",
"O. c #0065DB",
"+. c #0061DC",
"@. c #0062DE",
"#. c #0067E2",
"$. c #0B6DE5",
"%. c #006CEA",
"&. c #006CED",
"*. c #0E73F2",
"=. c #68A0CB",
"-. c #979697",
";. c gray62",
":. c #A4A2A2",
">. c #E4A381",
",. c #FDBF96",
"<. c #FEBB98",
"1. c #FDC198",
"2. c #FEC49B",
"3. c #FAC9A0",
"4. c #FEDCB7",
"5. c #FFE1B1",
"6. c #CAC0C0",
"7. c gray84",
"8. c #DBDBDC",
"9. c #EFD2C3",
"0. c #E2D7D7",
"q. c #F0D9D9",
"w. c #E0E1E6",
"e. c #ECE4E4",
"r. c #EEE6E6",
"t. c #F7EDEC",
"y. c #F7EDEE",
"u. c #F2F1F3",
"i. c #F3F3F3",
"p. c #F9F8F8",
"a. c #F9F9F9",
"s. c #FDFDFD",
"d. c #FEFEFE",
/* pixels */
"                                        ",
"                                        ",
"                    j A s r             ",
"      i.    0.    j q.y.r.t 9           ",
"      a.s.t.e.  8 o c % q t 8           ",
"        :.M f w J s.5.9.,.4 2 5         ",
"            p f = 4.>.=.1.V @ 1         ",
"              a 2.. . . G F N H         ",
"                _ <.3.Z C O             ",
"              ' +.~ ~ + h u             ",
"            $.*.&. .I 0 9 h i           ",
"            O.+.@.| ~ u.6.t 4           ",
"            _ ~ ~ Y w.p.7.;.            ",
"              ` K > < 8.-.              ",
"              { Q ; Y { Y >             ",
"              ..] L ; { { U             ",
"                %.! , E #.[ P           ",
"            b D x l &   v S m $         ",
"              B         l n z #         ",
"                                        "
};
